<svg width="10" height="8" viewBox="0 0 10 8" fill="none" xmlns="http://www.w3.org/2000/svg">
<path d="M-6.04409e-08 3.99999C-5.41737e-08 3.85661 0.0600235 3.71325 0.179818 3.60394L3.9514 0.164113C4.19132 -0.0547045 4.58031 -0.0547045 4.82013 0.164113C5.05996 0.382843 5.05996 0.737548 4.82013 0.956383L1.48283 3.99999L4.82002 7.04361C5.05984 7.26243 5.05984 7.61709 4.82002 7.83581C4.58019 8.05473 4.19121 8.05473 3.95129 7.83581L0.179702 4.39603C0.0598874 4.28667 -6.67057e-08 4.14331 -6.04409e-08 3.99999Z" fill="#D3D3D3"/>
<path d="M5 3.99999C5 3.85661 5.06002 3.71325 5.17982 3.60394L8.9514 0.164113C9.19132 -0.0547045 9.58031 -0.0547045 9.82013 0.164113C10.06 0.382843 10.06 0.737548 9.82013 0.956383L6.48283 3.99999L9.82002 7.04361C10.0598 7.26243 10.0598 7.61709 9.82002 7.83581C9.58019 8.05473 9.19121 8.05473 8.95129 7.83581L5.1797 4.39603C5.05989 4.28667 5 4.14331 5 3.99999Z" fill="#D3D3D3"/>
</svg>
