<svg width="10" height="8" viewBox="0 0 10 8" fill="none" xmlns="http://www.w3.org/2000/svg">
<path d="M10 4.00001C10 4.14339 9.93998 4.28675 9.82018 4.39606L6.0486 7.83589C5.80868 8.0547 5.41969 8.0547 5.17987 7.83589C4.94004 7.61716 4.94004 7.26245 5.17987 7.04362L8.51717 4.00001L5.17998 0.956393C4.94016 0.737575 4.94016 0.382906 5.17998 0.164194C5.41981 -0.0547302 5.8088 -0.0547302 6.04871 0.164194L9.8203 3.60397C9.94011 3.71333 10 3.85669 10 4.00001Z" fill="#D3D3D3"/>
<path d="M5 4.00001C5 4.14339 4.93998 4.28675 4.82018 4.39606L1.0486 7.83589C0.808678 8.0547 0.419689 8.0547 0.179867 7.83589C-0.0599556 7.61716 -0.0599555 7.26245 0.179867 7.04362L3.51717 4.00001L0.179984 0.956393C-0.0598381 0.737575 -0.0598381 0.382906 0.179984 0.164194C0.419807 -0.0547302 0.808795 -0.0547302 1.04871 0.164194L4.8203 3.60397C4.94011 3.71333 5 3.85669 5 4.00001Z" fill="#D3D3D3"/>
</svg>
