<svg width="90" height="495" viewBox="0 0 90 495" fill="none" xmlns="http://www.w3.org/2000/svg">
<g opacity="0.5">
<path d="M89 437.043L89 494.079L0.799996 494.079L0.799995 476.145L71.654 476.145L71.654 437.043L89 437.043ZM67.097 357.258C70.723 357.258 73.761 358.091 76.211 359.757C81.503 363.873 85.08 367.45 86.942 370.488C88.804 373.624 89.735 376.858 89.735 380.19L89.735 402.534C89.735 405.866 88.804 409.1 86.942 412.236C86.06 413.706 84.443 415.617 82.091 417.969C79.641 420.223 77.681 421.889 76.211 422.967C73.761 424.633 70.723 425.466 67.097 425.466L22.85 425.466C19.126 425.466 16.039 424.633 13.589 422.967C12.119 421.889 10.208 420.223 7.85599 417.969C5.50399 415.617 3.88699 413.706 3.00499 412.236C1.14299 409.1 0.211991 405.866 0.211991 402.534L0.21199 380.19C0.21199 376.858 1.14299 373.624 3.00499 370.488C4.57299 367.744 8.10099 364.167 13.589 359.757C16.039 358.091 19.126 357.258 22.85 357.258L67.097 357.258ZM67.097 375.192L22.85 375.192C20.498 376.564 18.685 378.328 17.411 380.484L17.411 402.093C18.979 404.249 20.841 406.062 22.997 407.532L67.097 407.532C69.743 405.572 71.556 403.808 72.536 402.24L72.536 380.631C71.164 378.769 69.351 376.956 67.097 375.192ZM21.968 273.46L26.672 290.071C22.752 291.933 19.665 294.53 17.411 297.862L17.411 316.237C19.077 318.589 21.037 320.5 23.291 321.97L67.097 321.97C67.195 321.97 67.538 321.774 68.126 321.382C68.714 320.892 69.449 320.206 70.331 319.324C71.213 318.344 71.948 317.315 72.536 316.237L72.536 297.568C70.674 294.824 67.734 292.325 63.716 290.071L67.832 273.313C71.164 274.489 74.3 276.155 77.24 278.311C85.57 284.191 89.735 290.659 89.735 297.715L89.735 316.972C89.735 320.304 88.804 323.538 86.942 326.674C86.06 328.144 84.492 330.006 82.238 332.26C79.886 334.514 77.926 336.229 76.358 337.405C73.712 339.071 70.674 339.904 67.244 339.904L22.703 339.904C19.077 339.904 16.039 339.071 13.589 337.405C12.119 336.327 10.208 334.661 7.85599 332.407C5.50399 330.055 3.88699 328.095 3.00499 326.527C1.14299 323.195 0.211987 320.01 0.211987 316.972L0.211986 297.715C0.211986 290.855 4.32799 284.436 12.56 278.458C15.304 276.498 18.44 274.832 21.968 273.46ZM89 190.745L89 212.501L52.544 238.814L52.544 240.284L89 240.284L89 258.218L0.799986 258.218L0.799985 240.284L36.668 240.284L36.668 238.814C36.668 238.618 33.679 236.315 27.701 231.905C21.723 227.495 15.745 223.134 9.76698 218.822L0.799984 212.354L0.799983 191.186L44.312 223.673L89 190.745Z" fill="#E9E9E9"/>
<path d="M67.979 116.309C71.801 116.309 74.986 117.191 77.534 118.955C80.768 121.209 83.463 123.806 85.619 126.746C87.873 129.98 89 133.704 89 137.918L89 180.842L0.799983 180.842L0.799981 137.918C0.79998 133.802 1.97598 130.078 4.32798 126.746C5.11198 125.766 6.38598 124.443 8.14998 122.777C9.91398 121.013 11.286 119.739 12.266 118.955C14.912 117.191 18.195 116.309 22.115 116.309L32.699 116.309C37.305 116.309 41.421 117.926 45.047 121.16C48.575 117.926 52.691 116.309 57.395 116.309L67.979 116.309ZM67.979 134.243L57.248 134.243C56.268 134.831 55.337 135.566 54.455 136.448C53.573 137.33 53.132 137.918 53.132 138.212L53.132 162.908L71.801 162.908L71.801 138.065C71.801 137.771 71.409 137.183 70.625 136.301C69.743 135.419 68.861 134.733 67.979 134.243ZM32.846 134.243L22.115 134.243C21.135 134.831 20.204 135.566 19.322 136.448C18.44 137.33 17.999 137.918 17.999 138.212L17.999 162.908L36.521 162.908L36.521 138.065C36.521 137.771 36.129 137.183 35.345 136.301C34.463 135.419 33.63 134.733 32.846 134.243ZM89 80.9213L89 99.0023L0.799979 99.0023L0.799978 80.9213L89 80.9213ZM17.999 0.823518L17.999 24.4905L89 24.4905L89 42.5715L17.999 42.5715L17.999 66.3855L0.799978 66.3855L0.799975 0.823518L17.999 0.823518Z" fill="#D7D7D7"/>
</g>
</svg>
