<svg width="12" height="16" viewBox="0 0 12 16" fill="none" xmlns="http://www.w3.org/2000/svg">
<path d="M8.467 1V3.8H11.267M8.467 1H9.4L11.267 2.867V3.8L8.467 1ZM8.467 1H1V15H11.267V3.8L8.467 1Z" stroke="#939393"/>
<path d="M2.40039 3.33301H7.06739V4.26601H2.40039V3.33301ZM2.40039 5.20001H9.86739V6.13301H2.40039V5.20001ZM2.40039 7.06701H9.86739V8.00001H2.40039V7.06701ZM2.40039 8.93301H9.86739V9.86601H2.40039V8.93301ZM2.40039 10.8H9.86739V11.733H2.40039V10.8ZM2.40039 12.667H9.86739V13.6H2.40039V12.667Z" fill="#ADADAD"/>
<path d="M1 15V1H9.4L11.267 2.867V15H1Z" fill="#FCFCFD"/>
<path d="M8.467 1V3.8H11.267M8.467 1H9.4L11.267 2.867V3.8L8.467 1ZM8.467 1H1V15H11.267V3.8L8.467 1Z" stroke="#AFAFAF"/>
</svg>
