<svg width="12" height="16" viewBox="0 0 12 16" fill="none" xmlns="http://www.w3.org/2000/svg">
<path d="M8.467 1V3.8H11.267M8.467 1H9.4L11.267 2.867V3.8L8.467 1ZM8.467 1H1V15H11.267V3.8L8.467 1Z" stroke="#939393"/>
<path d="M2.40039 3.33301H7.06739V4.26601H2.40039V3.33301ZM2.40039 5.20001H9.86739V6.13301H2.40039V5.20001ZM2.40039 7.06701H9.86739V8.00001H2.40039V7.06701ZM2.40039 8.93301H9.86739V9.86601H2.40039V8.93301ZM2.40039 10.8H9.86739V11.733H2.40039V10.8ZM2.40039 12.667H9.86739V13.6H2.40039V12.667Z" fill="#ADADAD"/>
<path d="M1 15V1H9.4L11.267 2.867V15H1Z" fill="#FCFCFD"/>
<path d="M8.467 1V3.8H11.267M8.467 1H9.4L11.267 2.867V3.8L8.467 1ZM8.467 1H1V15H11.267V3.8L8.467 1Z" stroke="#AFAFAF"/>
<path d="M9 6.64258H3V11.3566H9V6.64258Z" fill="#28AFEA"/>
<path d="M4.60732 8.48029C4.69984 8.48029 4.79145 8.46207 4.87692 8.42666C4.96239 8.39126 5.04006 8.33936 5.10548 8.27395C5.1709 8.20853 5.22279 8.13086 5.25819 8.04539C5.2936 7.95992 5.31182 7.86831 5.31182 7.77579C5.31182 7.68327 5.2936 7.59166 5.25819 7.50619C5.22279 7.42071 5.1709 7.34305 5.10548 7.27763C5.04006 7.21221 4.96239 7.16032 4.87692 7.12492C4.79145 7.08951 4.69984 7.07129 4.60732 7.07129C4.42061 7.07129 4.24154 7.14546 4.10952 7.27749C3.97749 7.40951 3.90332 7.58858 3.90332 7.77529C3.90332 7.962 3.97749 8.14107 4.10952 8.27309C4.24154 8.40512 4.42061 8.47929 4.60732 8.47929V8.48029Z" fill="#FCFCFD"/>
<path d="M8.89342 9.76184L8.78642 9.64184L7.50042 8.46484L6.37542 9.69584L6.96242 10.2838L7.39242 10.7138H8.89242V9.76184H8.89342ZM3.10742 11.1428H5.67842L5.24842 10.7128L4.07342 9.53684L3.10742 10.3878V11.1428V11.1428Z" fill="#134583"/>
<path d="M8.89342 10.7144H3.10742V11.2504H8.89342V10.7144ZM6.96242 10.2844L5.78742 9.10938L3.96442 10.7144H7.39342L6.96342 10.2844H6.96242Z" fill="#134583"/>
</svg>
