<svg width="12" height="16" viewBox="0 0 12 16" fill="none" xmlns="http://www.w3.org/2000/svg">
<path d="M8.467 1V3.8H11.267M8.467 1H9.4L11.267 2.867V3.8L8.467 1ZM8.467 1H1V15H11.267V3.8L8.467 1Z" stroke="#939393"/>
<path d="M2.40039 3.33301H7.06739V4.26601H2.40039V3.33301ZM2.40039 5.20001H9.86739V6.13301H2.40039V5.20001ZM2.40039 7.06701H9.86739V8.00001H2.40039V7.06701ZM2.40039 8.93301H9.86739V9.86601H2.40039V8.93301ZM2.40039 10.8H9.86739V11.733H2.40039V10.8ZM2.40039 12.667H9.86739V13.6H2.40039V12.667Z" fill="#ADADAD"/>
<path d="M1 15V1H9.4L11.267 2.867V15H1Z" fill="#FCFCFD"/>
<path d="M8.467 1V3.8H11.267M8.467 1H9.4L11.267 2.867V3.8L8.467 1ZM8.467 1H1V15H11.267V3.8L8.467 1Z" stroke="#AFAFAF"/>
<path d="M7.34 9.91276C7.358 9.73276 7.353 9.55476 7.327 9.37976L7.73 9.19976C7.65262 8.80322 7.48609 8.42947 7.243 8.10676L6.839 8.28676C6.72559 8.14932 6.59599 8.02609 6.453 7.91976L6.611 7.50676C6.27563 7.28076 5.89338 7.13374 5.493 7.07676L5.335 7.48976C5.15742 7.47284 4.97845 7.47754 4.802 7.50376L4.623 7.10276C4.22662 7.18138 3.85325 7.34892 3.531 7.59276L3.708 7.99176C3.572 8.10376 3.448 8.23376 3.341 8.37776L2.93 8.21976C2.70232 8.55426 2.55515 8.93691 2.5 9.33776L2.912 9.49576C2.895 9.67576 2.9 9.85376 2.926 10.0288L2.523 10.2088C2.60007 10.6057 2.76663 10.9798 3.01 11.3028L3.414 11.1228C3.526 11.2588 3.655 11.3828 3.8 11.4898L3.642 11.9018C3.97726 12.128 4.35956 12.275 4.76 12.3318L4.918 11.9188C5.098 11.9358 5.276 11.9308 5.451 11.9048L5.63 12.3058C6.03 12.2278 6.402 12.0578 6.723 11.8158L6.545 11.4168C6.68272 11.3037 6.80598 11.174 6.912 11.0308L7.322 11.1888C7.5499 10.8543 7.69741 10.4717 7.753 10.0708L7.341 9.91276H7.34ZM6.245 10.1328C6.18969 10.281 6.10555 10.4169 5.99744 10.5324C5.88933 10.648 5.7594 10.741 5.61515 10.8061C5.4709 10.8711 5.31518 10.907 5.157 10.9115C4.99882 10.9161 4.8413 10.8892 4.69355 10.8326C4.54579 10.7759 4.41073 10.6905 4.29616 10.5814C4.18159 10.4722 4.08979 10.3414 4.02605 10.1966C3.9623 10.0517 3.92789 9.89569 3.92479 9.73747C3.9217 9.57925 3.94998 9.42199 4.008 9.27476C4.12191 8.97811 4.349 8.73887 4.6393 8.60966C4.92961 8.48045 5.25936 8.47185 5.556 8.58576C5.85264 8.69967 6.09189 8.92676 6.2211 9.21706C6.35031 9.50737 6.35891 9.83711 6.245 10.1338V10.1328ZM9.575 6.62476C9.575 6.54476 9.567 6.46676 9.553 6.39076L9.862 6.21176C9.78831 5.93138 9.64087 5.67586 9.435 5.47176L9.125 5.64976C9.00552 5.54779 8.86821 5.46879 8.72 5.41676V5.05876C8.43987 4.98172 8.14413 4.98172 7.864 5.05876V5.41676C7.714 5.46976 7.577 5.54876 7.459 5.64976L7.149 5.47076C6.94313 5.67526 6.79571 5.9311 6.722 6.21176L7.032 6.39176C7.00354 6.54613 7.00354 6.70439 7.032 6.85876L6.722 7.03776C6.797 7.32276 6.946 7.57776 7.149 7.77876L7.459 7.59976C7.577 7.70076 7.714 7.77976 7.864 7.83376V8.19176C8.14388 8.26813 8.43912 8.26813 8.719 8.19176V7.83376C8.869 7.78076 9.006 7.70076 9.125 7.59976L9.435 7.77976C9.638 7.57776 9.787 7.32276 9.862 7.03776L9.552 6.85876C9.567 6.78276 9.575 6.70476 9.575 6.62476V6.62476ZM8.292 7.22376C8.21334 7.22376 8.13545 7.20827 8.06277 7.17816C7.9901 7.14806 7.92407 7.10394 7.86844 7.04832C7.81282 6.99269 7.7687 6.92666 7.7386 6.85399C7.70849 6.78131 7.693 6.70342 7.693 6.62476C7.693 6.5461 7.70849 6.46821 7.7386 6.39553C7.7687 6.32286 7.81282 6.25682 7.86844 6.2012C7.92407 6.14558 7.9901 6.10146 8.06277 6.07136C8.13545 6.04125 8.21334 6.02576 8.292 6.02576C8.45086 6.02576 8.60322 6.08887 8.71556 6.2012C8.82789 6.31354 8.891 6.46589 8.891 6.62476C8.891 6.78362 8.82789 6.93598 8.71556 7.04832C8.60322 7.16065 8.45086 7.22376 8.292 7.22376V7.22376Z" fill="#8A8A8A"/>
</svg>
