<svg width="12" height="16" viewBox="0 0 12 16" fill="none" xmlns="http://www.w3.org/2000/svg">
<path d="M8.467 1V3.8H11.267M8.467 1L11.267 3.8M8.467 1H9.4L11.267 2.867V3.8M8.467 1H1V15H11.267V3.8" stroke="#939393"/>
<path d="M2.40039 3.33301H7.06739V4.26601H2.40039V3.33301ZM2.40039 5.20001H9.86739V6.13301H2.40039V5.20001ZM2.40039 7.06701H9.86739V8.00001H2.40039V7.06701ZM2.40039 8.93301H9.86739V9.86601H2.40039V8.93301ZM2.40039 10.8H9.86739V11.733H2.40039V10.8ZM2.40039 12.667H9.86739V13.6H2.40039V12.667Z" fill="#ADADAD"/>
<path d="M1 15V1H9.4L11.267 2.867V15H1Z" fill="#FCFCFD"/>
<path d="M8.467 1V3.8H11.267M8.467 1L11.267 3.8M8.467 1H9.4L11.267 2.867V3.8M8.467 1H1V15H11.267V3.8" stroke="#D63438"/>
<path d="M11 7H1V13H11V7Z" fill="#D63438"/>
<path d="M3.01343 10.9146V12H2.24219V8.80078H3.5188C3.76343 8.80078 3.97949 8.84619 4.16699 8.93701C4.35596 9.02637 4.50171 9.15454 4.60425 9.32153C4.70825 9.48706 4.76026 9.67529 4.76026 9.88623C4.76026 10.1982 4.6482 10.448 4.42407 10.6355C4.20142 10.8215 3.89527 10.9146 3.50562 10.9146H3.01343ZM3.01343 10.3191H3.5188C3.66821 10.3191 3.78174 10.2817 3.85938 10.207C3.93848 10.1323 3.97803 10.0269 3.97803 9.89062C3.97803 9.74121 3.93775 9.62183 3.85718 9.53247C3.77661 9.44312 3.66675 9.39771 3.52759 9.39624H3.01343V10.3191ZM5.17334 12V8.80078H6.20386C6.48657 8.80078 6.74072 8.86523 6.96631 8.99414C7.1919 9.12158 7.36768 9.30249 7.49365 9.53687C7.6211 9.76978 7.68555 10.0312 7.68701 10.3213V10.4685C7.68701 10.7615 7.62476 11.0244 7.50025 11.2573C7.3772 11.4888 7.20288 11.6704 6.9773 11.8022C6.75318 11.9326 6.50269 11.9985 6.22583 12H5.17334ZM5.94458 9.39624V11.4067H6.21265C6.43384 11.4067 6.60376 11.3284 6.72241 11.1716C6.84107 11.0134 6.90039 10.7791 6.90039 10.4685V10.3301C6.90039 10.021 6.84107 9.78809 6.72241 9.63135C6.60376 9.47461 6.43091 9.39624 6.20386 9.39624H5.94458ZM10.0974 10.7256H8.85376V12H8.08252V8.80078H10.2227V9.39624H8.85376V10.1323H10.0974V10.7256Z" fill="white"/>
</svg>
