<svg width="12" height="16" viewBox="0 0 12 16" fill="none" xmlns="http://www.w3.org/2000/svg">
<path d="M8.467 1V3.8H11.267M8.467 1H9.4L11.267 2.867V3.8L8.467 1ZM8.467 1H1V15H11.267V3.8L8.467 1Z" stroke="#939393"/>
<path d="M2.40039 3.33301H7.06739V4.26601H2.40039V3.33301ZM2.40039 5.20001H9.86739V6.13301H2.40039V5.20001ZM2.40039 7.06701H9.86739V8.00001H2.40039V7.06701ZM2.40039 8.93301H9.86739V9.86601H2.40039V8.93301ZM2.40039 10.8H9.86739V11.733H2.40039V10.8ZM2.40039 12.667H9.86739V13.6H2.40039V12.667Z" fill="#ADADAD"/>
<path d="M1 15V1H9.4L11.267 2.867V15H1Z" fill="#FCFCFD"/>
<path d="M8.467 1V3.8H11.267M8.467 1H9.4L11.267 2.867V3.8L8.467 1ZM8.467 1H1V15H11.267V3.8L8.467 1Z" stroke="#AFAFAF"/>
<path d="M10 6H2V13H10V6Z" fill="#33B356"/>
<path d="M5.84229 8.55469L6.53223 7.24512H8.07031L6.81787 9.56104L8.13184 12H6.58496L5.83789 10.5938L5.104 12H3.54834L4.8667 9.56104L3.61865 7.24512H5.17432L5.84229 8.55469Z" fill="white"/>
<path d="M5.84229 8.55469L5.57504 8.691L5.83798 9.20649L6.1077 8.69452L5.84229 8.55469ZM6.53223 7.24512V6.94512H6.35119L6.26681 7.10528L6.53223 7.24512ZM8.07031 7.24512L8.3342 7.38782L8.57361 6.94512H8.07031V7.24512ZM6.81787 9.56104L6.55399 9.41833L6.47696 9.56076L6.55376 9.70332L6.81787 9.56104ZM8.13184 12V12.3H8.63422L8.39595 11.8577L8.13184 12ZM6.58496 12L6.32003 12.1407L6.40463 12.3H6.58496V12ZM5.83789 10.5938L6.10283 10.453L5.83553 9.94985L5.57193 10.455L5.83789 10.5938ZM5.104 12V12.3H5.28584L5.36996 12.1388L5.104 12ZM3.54834 12L3.28443 11.8573L3.04515 12.3H3.54834V12ZM4.8667 9.56104L5.13061 9.70369L5.2076 9.56125L5.13079 9.41872L4.8667 9.56104ZM3.61865 7.24512V6.94512H3.11619L3.35456 7.38744L3.61865 7.24512ZM5.17432 7.24512L5.44156 7.10881L5.35807 6.94512H5.17432V7.24512ZM6.1077 8.69452L6.79764 7.38495L6.26681 7.10528L5.57687 8.41485L6.1077 8.69452ZM6.53223 7.54512H8.07031V6.94512H6.53223V7.54512ZM7.80643 7.10241L6.55399 9.41833L7.08175 9.70374L8.3342 7.38782L7.80643 7.10241ZM6.55376 9.70332L7.86773 12.1423L8.39595 11.8577L7.08198 9.41875L6.55376 9.70332ZM8.13184 11.7H6.58496V12.3H8.13184V11.7ZM6.8499 11.8593L6.10283 10.453L5.57296 10.7345L6.32003 12.1407L6.8499 11.8593ZM5.57193 10.455L4.83804 11.8612L5.36996 12.1388L6.10385 10.7325L5.57193 10.455ZM5.104 11.7H3.54834V12.3H5.104V11.7ZM3.81225 12.1427L5.13061 9.70369L4.60279 9.41838L3.28443 11.8573L3.81225 12.1427ZM5.13079 9.41872L3.88275 7.1028L3.35456 7.38744L4.60261 9.70335L5.13079 9.41872ZM3.61865 7.54512H5.17432V6.94512H3.61865V7.54512ZM4.90707 7.38143L5.57504 8.691L6.10953 8.41838L5.44156 7.10881L4.90707 7.38143Z" fill="black" fill-opacity="0.53"/>
</svg>
