<svg width="12" height="16" viewBox="0 0 12 16" fill="none" xmlns="http://www.w3.org/2000/svg">
<path d="M8.467 1V3.8H11.267M8.467 1H9.4L11.267 2.867V3.8L8.467 1ZM8.467 1H1V15H11.267V3.8L8.467 1Z" stroke="#939393"/>
<path d="M2.40039 3.33301H7.06739V4.26601H2.40039V3.33301ZM2.40039 5.20001H9.86739V6.13301H2.40039V5.20001ZM2.40039 7.06701H9.86739V8.00001H2.40039V7.06701ZM2.40039 8.93301H9.86739V9.86601H2.40039V8.93301ZM2.40039 10.8H9.86739V11.733H2.40039V10.8ZM2.40039 12.667H9.86739V13.6H2.40039V12.667Z" fill="#ADADAD"/>
<path d="M1 15V1H9.4L11.267 2.867V15H1Z" fill="#B91419"/>
<path d="M8.467 1V3.8H11.267M8.467 1H9.4L11.267 2.867V3.8L8.467 1ZM8.467 1H1V15H11.267V3.8L8.467 1Z" stroke="#8A0C10"/>
<path d="M8.43455 6.06545C7.68061 5.31151 6.45392 5.31152 5.69998 6.06546C5.185 6.58044 5.00612 7.33936 5.22911 8.0279L3.0515 10.2055C3.01854 10.2385 3 10.2831 3 10.3298V11.3242C3 11.4214 3.07862 11.5 3.17578 11.5H4.17021C4.2169 11.5 4.26154 11.4815 4.29449 11.4485L4.54306 11.1998C4.58099 11.1618 4.59953 11.1086 4.59335 11.0552L4.56245 10.7881L4.93255 10.7533C5.01667 10.7454 5.08311 10.6789 5.091 10.5948L5.12586 10.2247L5.39296 10.2558C5.44257 10.2625 5.49252 10.2458 5.53012 10.2125C5.56754 10.1791 5.58899 10.1313 5.58899 10.0812V9.75392H5.91035C5.95703 9.75392 6.00167 9.73538 6.03462 9.70242L6.48541 9.2576C7.17377 9.48076 7.91956 9.31536 8.43455 8.80002C9.18848 8.0461 9.18848 6.81939 8.43455 6.06545ZM7.93726 7.30846C7.73161 7.51411 7.39721 7.51411 7.19156 7.30846C6.98591 7.10281 6.98591 6.76841 7.19156 6.56276C7.39721 6.35711 7.73161 6.35711 7.93726 6.56276C8.14291 6.76841 8.1429 7.10281 7.93726 7.30846Z" fill="white"/>
</svg>
