<svg width="12" height="16" viewBox="0 0 12 16" fill="none" xmlns="http://www.w3.org/2000/svg">
<path d="M8.467 1V3.8H11.267M8.467 1H9.4L11.267 2.867V3.8L8.467 1ZM8.467 1H1V15H11.267V3.8L8.467 1Z" stroke="#939393"/>
<path d="M2.40039 3.33301H7.06739V4.26601H2.40039V3.33301ZM2.40039 5.20001H9.86739V6.13301H2.40039V5.20001ZM2.40039 7.06701H9.86739V8.00001H2.40039V7.06701ZM2.40039 8.93301H9.86739V9.86601H2.40039V8.93301ZM2.40039 10.8H9.86739V11.733H2.40039V10.8ZM2.40039 12.667H9.86739V13.6H2.40039V12.667Z" fill="#ADADAD"/>
<path d="M1 15V1H9.4L11.267 2.867V15H1Z" fill="#061D25"/>
<path d="M8.467 1V3.8H11.267M8.467 1H9.4L11.267 2.867V3.8L8.467 1ZM8.467 1H1V15H11.267V3.8L8.467 1Z" stroke="#25C9FF"/>
<path d="M3.46973 9.24658V11H2.44434V6.02344H4.38574C4.75944 6.02344 5.08757 6.0918 5.37012 6.22852C5.65495 6.36523 5.8737 6.56006 6.02637 6.81299C6.17904 7.06364 6.25537 7.34961 6.25537 7.6709C6.25537 8.15853 6.08789 8.54362 5.75293 8.82617C5.42025 9.10645 4.95882 9.24658 4.36865 9.24658H3.46973ZM3.46973 8.41602H4.38574C4.6569 8.41602 4.86312 8.35221 5.00439 8.22461C5.14795 8.09701 5.21973 7.91471 5.21973 7.67773C5.21973 7.43392 5.14795 7.23682 5.00439 7.08643C4.86084 6.93604 4.6626 6.85856 4.40967 6.854H3.46973V8.41602ZM8.62088 9.97803C8.62088 9.85726 8.56049 9.7627 8.43973 9.69434C8.32124 9.6237 8.12983 9.56104 7.86551 9.50635C6.98595 9.32178 6.54617 8.94808 6.54617 8.38525C6.54617 8.05713 6.68175 7.78369 6.95291 7.56494C7.22635 7.34391 7.58296 7.2334 8.02273 7.2334C8.49214 7.2334 8.86697 7.34391 9.14725 7.56494C9.4298 7.78597 9.57107 8.07308 9.57107 8.42627H8.58328C8.58328 8.28499 8.53771 8.16878 8.44656 8.07764C8.35542 7.98421 8.213 7.9375 8.01932 7.9375C7.85298 7.9375 7.72423 7.9751 7.63309 8.05029C7.54194 8.12549 7.49637 8.22119 7.49637 8.3374C7.49637 8.44678 7.54764 8.53564 7.65018 8.604C7.75499 8.67008 7.93045 8.72819 8.17654 8.77832C8.42264 8.82617 8.62999 8.88086 8.79861 8.94238C9.32042 9.13379 9.58133 9.46533 9.58133 9.93701C9.58133 10.2743 9.43663 10.5477 9.14725 10.7573C8.85786 10.9647 8.48416 11.0684 8.02615 11.0684C7.71626 11.0684 7.44054 11.0137 7.199 10.9043C6.95975 10.7926 6.77176 10.6411 6.63504 10.4497C6.49832 10.256 6.42996 10.0475 6.42996 9.82422H7.36648C7.3756 9.99967 7.44054 10.1341 7.56131 10.2275C7.68208 10.321 7.84386 10.3677 8.04666 10.3677C8.23579 10.3677 8.3782 10.3324 8.47391 10.2617C8.57189 10.1888 8.62088 10.0942 8.62088 9.97803Z" fill="#25C9FF"/>
</svg>
