<svg id="svg" xmlns="http://www.w3.org/2000/svg" xmlns:xlink="http://www.w3.org/1999/xlink" width="20" height="20" viewBox="0, 0, 400,400"><g id="svgg"><path id="path0" d="M183.984 43.464 C 119.134 52.796,71.399 99.884,63.238 162.573 L 62.262 170.068 56.843 171.368 C 31.034 177.562,10.413 197.530,2.209 224.271 L 0.428 230.078 0.188 293.555 L -0.052 357.031 94.114 357.031 L 188.281 357.031 188.281 296.875 C 188.281 263.789,188.021 236.719,187.703 236.719 C 187.385 236.719,180.788 243.048,173.044 250.784 L 158.963 264.849 150.574 256.434 L 142.185 248.018 168.163 222.107 C 203.460 186.900,196.655 186.892,231.943 222.181 L 258.197 248.434 249.803 256.828 L 241.410 265.222 226.955 250.783 L 212.500 236.344 212.500 296.688 L 212.500 357.031 306.274 357.031 L 400.048 357.031 399.815 286.914 L 399.582 216.797 397.740 210.156 C 389.343 179.884,365.653 155.369,337.384 147.701 L 333.753 146.716 331.270 138.886 C 316.023 90.789,276.549 55.365,226.929 45.251 C 218.654 43.564,191.221 42.423,183.984 43.464 M220.118 44.969 C 271.222 52.557,314.059 88.972,330.276 138.612 L 333.180 147.502 337.879 148.807 C 406.886 167.968,421.081 264.905,360.648 304.297 C 341.125 317.023,329.022 319.496,286.133 319.519 L 263.281 319.531 263.281 307.031 L 263.281 294.531 292.453 294.531 C 318.934 294.531,322.195 294.388,327.805 292.983 C 366.674 283.247,386.479 239.578,368.382 203.516 C 358.971 184.761,344.603 174.703,319.351 169.193 C 315.304 168.310,312.000 163.970,310.574 157.665 C 291.785 74.583,192.849 41.225,127.225 95.844 C 104.024 115.154,89.347 144.611,87.783 175.000 C 86.983 190.548,84.803 193.072,70.930 194.507 C 17.015 200.085,7.947 273.446,58.841 292.307 C 63.584 294.065,64.346 294.102,100.586 294.350 L 137.500 294.603 137.500 307.067 L 137.500 319.531 108.008 319.525 C 59.072 319.513,47.395 317.141,29.860 303.648 C -19.129 265.952,-3.334 187.811,56.373 172.489 L 63.136 170.754 63.670 165.650 C 71.647 89.428,143.946 33.658,220.118 44.969 " stroke="none" fill="#000000" fill-rule="evenodd"></path></g></svg>