<svg width="17" height="16" viewBox="0 0 17 16" fill="none" xmlns="http://www.w3.org/2000/svg">
<path d="M15.7608 11.4175C15.8922 11.1404 16.0064 10.8581 16.1042 10.5712H16.0791C17.7909 5.5466 14.1909 0.265704 8.8763 0.00857053C8.8762 0.00829626 8.87616 0.00802174 8.87607 0.00774746C4.30317 -0.202987 0.503906 3.4584 0.503906 7.99848C0.503906 12.4058 4.08599 15.9916 8.49185 15.998C9.68692 15.9964 10.8324 15.7392 11.9005 15.2325C16.0698 16.0568 15.7447 15.9982 15.8405 15.9982C16.2738 15.9982 16.5975 15.6011 16.5129 15.178L15.7608 11.4175Z" fill="#777777"/>
<rect x="5" y="6" width="7" height="1" fill="white"/>
<rect x="5" y="9" width="7" height="1" fill="white"/>
</svg>
