<svg width="17" height="19" viewBox="0 0 17 19" fill="none" xmlns="http://www.w3.org/2000/svg">
<path d="M2.31818 5.21591C2.31818 3.19214 3.96486 1.54545 5.98864 1.54545H13.046C12.7917 0.656045 11.9811 0 11.0114 0H2.125C0.952773 0 0 0.952773 0 2.125V14.1023C0 15.2745 0.952773 16.2273 2.125 16.2273H2.31818V5.21591Z" fill="#3085FA"/>
<path d="M14.8751 3.09082H5.98877C4.81654 3.09082 3.86377 4.04359 3.86377 5.21582V16.4204C3.86377 17.5926 4.81654 18.5454 5.98877 18.5454H14.8751C16.0474 18.5454 17.0001 17.5926 17.0001 16.4204V5.21582C17.0001 4.04359 16.0474 3.09082 14.8751 3.09082ZM13.3297 16.2272H7.53422C7.21431 16.2272 6.95468 15.9675 6.95468 15.6476C6.95468 15.3277 7.21431 15.0681 7.53422 15.0681H13.3297C13.6496 15.0681 13.9092 15.3277 13.9092 15.6476C13.9092 15.9675 13.6496 16.2272 13.3297 16.2272ZM13.3297 13.1363H7.53422C7.21431 13.1363 6.95468 12.8766 6.95468 12.5567C6.95468 12.2368 7.21431 11.9772 7.53422 11.9772H13.3297C13.6496 11.9772 13.9092 12.2368 13.9092 12.5567C13.9092 12.8766 13.6496 13.1363 13.3297 13.1363ZM13.3297 10.4317H7.53422C7.21431 10.4317 6.95468 10.1721 6.95468 9.85218C6.95468 9.53227 7.21431 9.27264 7.53422 9.27264H13.3297C13.6496 9.27264 13.9092 9.53227 13.9092 9.85218C13.9092 10.1721 13.6496 10.4317 13.3297 10.4317ZM13.3297 7.34082H7.53422C7.21431 7.34082 6.95468 7.08118 6.95468 6.76127C6.95468 6.44137 7.21431 6.18173 7.53422 6.18173H13.3297C13.6496 6.18173 13.9092 6.44137 13.9092 6.76127C13.9092 7.08118 13.6496 7.34082 13.3297 7.34082Z" fill="#3085FA"/>
</svg>
