<svg width="20" height="16" viewBox="0 0 20 16" fill="none" xmlns="http://www.w3.org/2000/svg">
<path d="M7.5732 4.60312V4.13757H1.56566V5.18252H0V9.51898H1.56566V10.5639H2.87353V10.5639H6.52104V10.5639H7.5732V10.0983L7.57328 10.0983V4.60308L7.5732 4.60312Z" fill="#777777"/>
<path d="M6.7764 11.7395H3.12891L4.04748 15.9631H7.69499L6.7764 11.7395Z" fill="#777777"/>
<path d="M10.1156 3.78694C9.61453 3.97832 9.15473 4.13604 8.74805 4.26512V10.4363C9.15469 10.5653 9.61453 10.7231 10.1156 10.9144C11.8245 11.5672 14.3629 12.7503 16.8498 14.7014V0C14.3629 1.95111 11.8245 3.13422 10.1156 3.78694Z" fill="#777777"/>
<path d="M18.3347 4.60773H18.0234V10.0936H18.3347C19.1232 10.0936 19.7647 9.45137 19.7647 8.66192V6.03938C19.7647 5.24997 19.1232 4.60773 18.3347 4.60773Z" fill="#777777"/>
</svg>
