<svg width="12" height="12" viewBox="0 0 12 12" fill="none" xmlns="http://www.w3.org/2000/svg">
<path d="M4.714 2.58297V0.42847C4.71393 0.191759 4.52199 -7.53154e-05 4.28528 2.21824e-08C4.16389 2.51347e-05 4.04822 0.051556 3.96695 0.141735L0.109695 4.42762C-0.0313624 4.58472 -0.0370127 4.82113 0.0964102 4.98479L3.95369 9.69924C4.10357 9.88243 4.37358 9.90945 4.5568 9.75958C4.65604 9.67839 4.71372 9.55703 4.714 9.4288V7.29316C8.09985 7.4033 10.2128 8.85063 11.1651 11.7076C11.2235 11.8824 11.3871 12.0002 11.5714 12.0003C11.5945 12.0004 11.6176 11.9985 11.6404 11.9947C11.8477 11.9609 12 11.7818 12 11.5717C12 6.52469 8.96174 2.81697 4.714 2.58297Z" fill="#3085FA"/>
</svg>
