<svg id="svg" xmlns="http://www.w3.org/2000/svg" xmlns:xlink="http://www.w3.org/1999/xlink" width="20" height="20" viewBox="0, 0, 400,400"><g id="svgg"><path id="path0" d="M143.747 54.480 C 143.744 95.795,143.691 97.353,142.192 99.812 C 138.605 105.694,140.631 105.463,92.773 105.466 L 50.000 105.469 50.001 241.992 C 50.003 394.446,49.529 381.812,55.389 385.727 L 58.044 387.500 197.029 387.500 C 348.064 387.500,337.903 387.800,342.188 383.214 L 344.141 381.124 344.341 200.689 C 344.562 1.687,344.963 17.711,339.660 13.929 L 337.109 12.109 240.430 11.902 L 143.750 11.695 143.747 54.480 M88.864 50.589 C 71.356 68.101,57.031 82.691,57.031 83.011 C 57.031 83.332,71.621 83.594,89.453 83.594 L 121.875 83.594 121.875 51.172 C 121.875 33.340,121.610 18.750,121.285 18.750 C 120.961 18.750,106.371 33.078,88.864 50.589 M262.484 135.743 C 269.994 139.516,270.891 149.270,264.192 154.297 C 262.154 155.826,260.726 155.864,197.987 156.068 L 133.864 156.276 131.190 154.490 C 123.908 149.625,124.384 139.671,132.087 135.743 C 136.214 133.639,258.296 133.639,262.484 135.743 M263.549 178.363 C 270.553 182.953,270.307 193.387,263.104 197.172 C 260.735 198.417,255.830 198.499,196.352 198.281 L 132.157 198.047 130.067 196.094 C 123.717 190.160,124.833 181.477,132.389 178.022 C 137.203 175.820,260.157 176.140,263.549 178.363 M263.120 220.546 C 270.542 224.598,270.542 235.558,263.120 239.611 C 260.703 240.930,256.709 241.016,197.266 241.016 L 133.984 241.016 131.138 239.245 C 122.736 234.021,124.962 221.885,134.766 219.466 C 140.509 218.048,260.394 219.057,263.120 220.546 M235.583 265.001 C 241.547 271.509,238.721 281.436,230.432 283.093 C 224.260 284.328,136.087 283.641,132.818 282.333 C 125.689 279.481,123.697 271.494,128.647 265.611 C 131.899 261.747,131.228 261.791,183.459 261.955 L 232.933 262.109 235.583 265.001 " stroke="none" fill="#000000" fill-rule="evenodd"></path></g></svg>