<svg id="svg" xmlns="http://www.w3.org/2000/svg" xmlns:xlink="http://www.w3.org/1999/xlink" width="20" height="20" viewBox="0, 0, 400,400"><g id="svgg"><path id="path0" d="M46.374 17.230 C 22.816 20.301,2.446 40.895,0.242 63.867 C -0.316 69.685,-0.337 69.679,5.043 65.297 C 14.234 57.811,26.084 52.255,39.028 49.363 C 44.447 48.153,57.463 48.047,200.528 48.047 L 356.135 48.047 354.166 44.429 C 346.089 29.589,330.782 19.428,313.177 17.221 C 305.429 16.249,53.830 16.258,46.374 17.230 M40.135 74.202 C 21.159 79.177,6.115 94.413,1.192 113.641 C -0.585 120.581,-0.589 334.513,1.188 342.049 C 5.600 360.767,21.218 376.496,40.637 381.780 C 46.878 383.478,339.722 384.432,352.344 382.795 C 373.626 380.036,390.674 366.261,397.764 346.094 C 399.469 341.242,399.561 339.787,399.820 313.477 L 400.091 285.937 343.991 285.932 C 291.284 285.927,287.513 285.835,281.641 284.420 C 228.726 271.670,220.932 200.131,269.922 176.865 C 281.614 171.313,278.520 171.551,342.383 171.281 L 400.000 171.037 400.000 144.667 C 400.000 115.106,399.788 113.462,394.584 102.734 C 387.556 88.245,375.198 78.166,359.557 74.166 C 350.497 71.848,48.982 71.883,40.135 74.202 M288.882 196.159 C 254.175 201.244,252.197 251.624,286.355 260.521 C 290.274 261.542,299.012 261.719,345.477 261.719 L 400.000 261.719 400.000 228.516 L 400.000 195.313 346.680 195.408 C 317.354 195.460,291.345 195.798,288.882 196.159 M305.477 218.945 C 313.284 224.259,313.656 234.571,306.231 239.857 C 295.008 247.849,281.060 233.993,288.657 222.399 C 292.097 217.148,300.347 215.454,305.477 218.945 " stroke="none" fill="#000000" fill-rule="evenodd"></path></g></svg>